<?xml version="1.0" encoding="iso-8859-1"?>
<!-- Generator: Adobe Illustrator 19.0.0, SVG Export Plug-In . SVG Version: 6.00 Build 0)  -->
<svg version="1.1" id="Layer_1" xmlns="http://www.w3.org/2000/svg" xmlns:xlink="http://www.w3.org/1999/xlink" x="0px" y="0px"
	 viewBox="0 0 496.2 496.2" style="enable-background:new 0 0 496.2 496.2;" xml:space="preserve">
<path style="fill:#c1d4d0;" d="M496.2,248.1C496.2,111.1,385.1,0,248.1,0S0,111.1,0,248.1s111.1,248.1,248.1,248.1
	S496.2,385.1,496.2,248.1z"/>
<path style="fill:#3A3A38;" d="M391,376.6c0,6.4-5.2,11.6-11.6,11.6H113c-6.4,0-11.6-5.2-11.6-11.6V186.1H391L391,376.6L391,376.6z"
	/>
<circle style="fill:#D8DBBA;" cx="248.1" cy="306.3" r="56.1"/>
<path style="fill:#3A3A38;" d="M275.8,303.4l-39.5-24.3c-1.1-0.7-2.5-0.7-3.6-0.1s-1.8,1.8-1.8,3.1v48.4c0,1.3,0.7,2.5,1.8,3.1
	c0.5,0.3,1.1,0.5,1.7,0.5c0.7,0,1.3-0.2,1.9-0.5l39.5-24.1c1.1-0.6,1.7-1.8,1.7-3C277.5,305.2,276.9,304,275.8,303.4z"/>
<g>
	<polygon style="fill:#FFFFFF;" points="181,225.2 152.9,225.2 182.6,186.1 210.7,186.1 	"/>
	<polygon style="fill:#FFFFFF;" points="236.8,225.2 208.7,225.2 238.4,186.1 266.5,186.1 	"/>
	<polygon style="fill:#FFFFFF;" points="291.7,225.2 263.6,225.2 293.3,186.1 321.4,186.1 	"/>
	<polygon style="fill:#FFFFFF;" points="347,225.2 318.9,225.2 348.6,186.1 376.7,186.1 	"/>
</g>
<polygon style="fill:#3A3A38;" points="151.7,136.8 123.8,140.1 158,175.2 185.9,171.8 "/>
<g>
	<polygon style="fill:#FFFFFF;" points="124.2,140.1 104.7,142.4 130.5,178.5 158.3,175.2 	"/>
	<polygon style="fill:#FFFFFF;" points="179.2,133.5 151.3,136.8 185.4,171.9 213.3,168.5 	"/>
</g>
<polygon style="fill:#3A3A38;" points="206.7,130.2 178.8,133.5 212.9,168.6 240.8,165.2 "/>
<polygon style="fill:#FFFFFF;" points="234.5,126.8 206.7,130.2 240.8,165.2 268.7,161.9 "/>
<polygon style="fill:#3A3A38;" points="262,123.5 234.1,126.8 268.3,161.9 296.1,158.5 "/>
<polygon style="fill:#FFFFFF;" points="289.1,120.2 261.2,123.6 295.3,158.6 323.2,155.3 "/>
<polygon style="fill:#3A3A38;" points="316.5,116.9 288.7,120.3 322.8,155.3 350.7,152 "/>
<polygon style="fill:#FFFFFF;" points="344,113.6 316.1,117 350.3,152 378.2,148.7 "/>
<g>
	<polygon style="fill:#3A3A38;" points="384.1,108.7 344.4,113.6 378.6,148.6 388.7,147.4 	"/>
	<polygon style="fill:#3A3A38;" points="198.6,228.5 101.4,228.5 101.4,142.8 115.5,141.1 	"/>
</g>
<g>
	<circle style="fill:#B5B4A0;" cx="115" cy="163.4" r="5.7"/>
	<circle style="fill:#B5B4A0;" cx="115" cy="208.1" r="5.7"/>
	<circle style="fill:#B5B4A0;" cx="159.8" cy="208.1" r="5.7"/>
</g>
<g>
</g>
<g>
</g>
<g>
</g>
<g>
</g>
<g>
</g>
<g>
</g>
<g>
</g>
<g>
</g>
<g>
</g>
<g>
</g>
<g>
</g>
<g>
</g>
<g>
</g>
<g>
</g>
<g>
</g>
</svg>
